<?xml version="1.0" encoding="utf-8"?>
<!-- Generator: Adobe Illustrator 18.1.1, SVG Export Plug-In . SVG Version: 6.00 Build 0)  -->
<svg version="1.1" id="Слой_1" xmlns="http://www.w3.org/2000/svg" xmlns:xlink="http://www.w3.org/1999/xlink" x="0px" y="0px"
	 viewBox="0 0 31 26.03" enable-background="new 0 0 31 26.03" xml:space="preserve">
<g>
	<path fill-rule="evenodd" clip-rule="evenodd" fill="#904221" d="M14.99,2.09v2.25h-1.75V2.87c0-0.62-0.51-1.13-1.13-1.13h-5.1
		c-0.63,0-1.13,0.51-1.13,1.13v1.47H4.13V2.09C4.13,0.93,5.06,0,6.22,0h6.68C14.05,0,14.99,0.93,14.99,2.09z"/>
	<path fill-rule="evenodd" clip-rule="evenodd" fill="#904221" d="M17.09,4.73H1.76c-1.23,0-1.72,0.95-1.72,2.18v10.86
		c0,1.26,0.49,1.82,1.72,1.82h11.97h3.35h1.92v-1.82v-1.61V6.91C19.01,5.68,18.34,4.73,17.09,4.73z"/>
	<rect x="8.04" y="12.59" fill-rule="evenodd" clip-rule="evenodd" fill="#C9C9C9" width="3" height="2"/>
	<path fill-rule="evenodd" clip-rule="evenodd" fill="#B75931" d="M17.39,3.67H1.67c-0.9,0-1.62,0.73-1.62,1.62v5.65
		c0,0.9,0.73,1.62,1.62,1.62h15.72c0.9,0,1.62-0.73,1.62-1.62V5.3C19.02,4.4,18.29,3.67,17.39,3.67z"/>
	<rect x="0" y="19.59" fill-rule="evenodd" clip-rule="evenodd" fill="#3D3D3D" width="25" height="2.82"/>
	<path fill-rule="evenodd" clip-rule="evenodd" fill="#C9C9C9" stroke="#3D3D3D" stroke-width="1.2189" stroke-miterlimit="10" d="
		M4.77,25.43c1.31,0,2.38-1.08,2.38-2.38c0-1.31-1.08-2.38-2.38-2.38s-2.38,1.08-2.38,2.38C2.39,24.35,3.47,25.43,4.77,25.43
		L4.77,25.43z"/>
	<path fill-rule="evenodd" clip-rule="evenodd" fill="#478BE2" d="M19.02,22.51l11.94,0.06l0.02-5.98l-2.96-7H20
		c-0.41,0-1,0.08-1,0.49L19.02,22.51z"/>
	<path fill-rule="evenodd" clip-rule="evenodd" fill="#C9C9C9" stroke="#3D3D3D" stroke-width="1.2189" stroke-miterlimit="10" d="
		M25.42,25.43c1.33,0,2.38-1.08,2.38-2.38c0-1.31-1.05-2.38-2.38-2.38c-1.31,0-2.38,1.08-2.38,2.38
		C23.04,24.35,24.11,25.43,25.42,25.43L25.42,25.43z"/>
	<rect x="28" y="20.59" fill-rule="evenodd" clip-rule="evenodd" fill="#3D3D3D" width="3" height="3"/>
	<rect x="29.22" y="18.59" fill-rule="evenodd" clip-rule="evenodd" fill="#FF9900" width="1.78" height="2"/>
	<path fill-rule="evenodd" clip-rule="evenodd" fill="#525252" d="M28.73,16.59c-2.29-0.04-2.83,0-4.66,0c0.03-1.97,0.03-3.01,0-6
		h2.66L28.73,16.59z"/>
</g>
<g>
</g>
<g>
</g>
<g>
</g>
<g>
</g>
<g>
</g>
<g>
</g>
<g>
</g>
<g>
</g>
<g>
</g>
<g>
</g>
<g>
</g>
<g>
</g>
<g>
</g>
<g>
</g>
<g>
</g>
</svg>
